<svg width="24" height="24" viewBox="0 0 24 24" fill="none" xmlns="http://www.w3.org/2000/svg">
<g clip-path="url(#clip0_754_509)">
<path d="M5.14546 14.5035L4.3373 17.6222L1.38348 17.6868C0.500716 15.9943 0 14.0578 0 12C0 10.0101 0.468157 8.13362 1.298 6.48132H1.29863L3.92836 6.9797L5.08035 9.68176C4.83924 10.4084 4.70783 11.1884 4.70783 12C4.70792 12.8809 4.86228 13.7249 5.14546 14.5035Z" fill="#FBBB00"/>
<path d="M23.0144 9.7583C23.1477 10.4842 23.2173 11.2339 23.2173 12.0001C23.2173 12.8592 23.1299 13.6972 22.9634 14.5056C22.3983 17.2563 20.9217 19.6583 18.8761 21.3581L18.8755 21.3574L15.5632 21.1827L15.0944 18.1576C16.4517 17.3348 17.5125 16.0471 18.0712 14.5056H11.8638V9.7583H18.1618H23.0144Z" fill="#518EF8"/>
<path d="M18.8754 21.3574L18.8761 21.358C16.8867 23.011 14.3595 24 11.6085 24C7.18765 24 3.34404 21.4457 1.3833 17.6868L5.14529 14.5035C6.12564 17.2081 8.64957 19.1334 11.6085 19.1334C12.8804 19.1334 14.0719 18.778 15.0943 18.1576L18.8754 21.3574Z" fill="#28B446"/>
<path d="M19.0183 2.76262L15.2576 5.94525C14.1995 5.26153 12.9486 4.86656 11.6086 4.86656C8.58263 4.86656 6.01148 6.88017 5.08025 9.68175L1.29849 6.48131H1.29785C3.22988 2.63077 7.12197 0 11.6086 0C14.4252 0 17.0079 1.03716 19.0183 2.76262Z" fill="#F14336"/>
</g>
<defs>
<clipPath id="clip0_754_509">
<rect width="23.2174" height="24" fill="white"/>
</clipPath>
</defs>
</svg>
